<!-- src/assets/library/ColorsAllAround/images/YellowSun.svg -->
<svg viewBox="0 0 400 300" xmlns="http://www.w3.org/2000/svg">
    <rect width="400" height="300" fill="#87ceeb"/>
    <!-- Sun -->
    <circle cx="200" cy="120" r="50" fill="#ffd700"/>
    <g stroke="#ffd700" stroke-width="8">
        <line x1="200" y1="40" x2="200" y2="10"/>
        <line x1="200" y1="230" x2="200" y2="200"/>
        <line x1="120" y1="120" x2="90" y2="120"/>
        <line x1="310" y1="120" x2="280" y2="120"/>
        <line x1="140" y1="60" x2="120" y2="40"/>
        <line x1="260" y1="60" x2="280" y2="40"/>
        <line x1="140" y1="180" x2="120" y2="200"/>
        <line x1="260" y1="180" x2="280" y2="200"/>
    </g>
    <!-- Yellow flower -->
    <g transform="translate(100, 220)">
        <path d="M 0 0 C -10 -10, -10 -30, 0 -40 C 10 -30, 10 -10, 0 0" fill="#ffd700"/>
        <path d="M 0 0 C 10 -10, 30 -10, 40 0 C 30 10, 10 10, 0 0" fill="#ffd700"/>
        <path d="M 0 0 C 10 10, 10 30, 0 40 C -10 30, -10 10, 0 0" fill="#ffd700"/>
        <path d="M 0 0 C -10 10, -30 10, -40 0 C -30 -10, -10 -10, 0 0" fill="#ffd700"/>
        <circle cx="0" cy="0" r="10" fill="#fb8c00"/>
    </g>
</svg>