<?xml version="1.0" encoding="UTF-8"?>
<svg xmlns="http://www.w3.org/2000/svg" viewBox="0 0 400 300">
    <rect width="400" height="300" fill="#fce4ec"/>
    <g transform="translate(200 150)">
        <circle cx="0" cy="0" r="40" fill="#ffcc80"/>
        <circle cx="-15" cy="-5" r="5" fill="#ffffff"/>
        <circle cx="15" cy="-5" r="5" fill="#ffffff"/>
        <path d="M -15 15 Q 0 25 15 15"
              fill="none"
              stroke="#f57c00"
              stroke-width="3"
              stroke-linecap="round"/>

        <path d="M 0 -80
                C -20 -100, -40 -80, -20 -60
                L 0 -45
                L 20 -60
                C 40 -80, 20 -100, 0 -80"
              fill="#ff4081"/>

        <path d="M 0 40
                C -20 20, -40 40, -20 60
                L 0 75
                L 20 60
                C 40 40, 20 20, 0 40"
              fill="#ff4081"/>

        <path d="M -70 0
                C -90 -20, -110 0, -90 20
                L -70 35
                L -50 20
                C -30 0, -50 -20, -70 0"
              fill="#ff4081"/>

        <path d="M 70 0
                C 50 -20, 30 0, 50 20
                L 70 35
                L 90 20
                C 110 0, 90 -20, 70 0"
              fill="#ff4081"/>
    </g>
    <text x="200" y="270"
          text-anchor="middle"
          fill="#880e4f"
          font-size="24"
          font-family="Arial">
        Love is all around!
    </text>
</svg>