<svg viewBox="0 0 400 300" xmlns="http://www.w3.org/2000/svg">
    <!-- Soft blue-purple background -->
    <rect width="400" height="300" fill="#e8eaf6"/>

    <!-- Teddy bear -->
    <g transform="translate(200 150)">
        <!-- Body -->
        <circle cx="0" cy="20" r="60" fill="#cfb795"/>

        <!-- Head -->
        <circle cx="0" cy="-40" r="40" fill="#cfb795"/>

        <!-- Ears -->
        <circle cx="-30" cy="-70" r="15" fill="#cfb795"/>
        <circle cx="30" cy="-70" r="15" fill="#cfb795"/>

        <!-- Inner ears -->
        <circle cx="-30" cy="-70" r="8" fill="#b4917a"/>
        <circle cx="30" cy="-70" r="8" fill="#b4917a"/>

        <!-- Eyes -->
        <circle cx="-15" cy="-45" r="5" fill="#4a4a4a"/>
        <circle cx="15" cy="-45" r="5" fill="#4a4a4a"/>

        <!-- Nose -->
        <circle cx="0" cy="-35" r="7" fill="#b4917a"/>

        <!-- Mouth -->
        <path d="M -10 -25 Q 0 -20 10 -25"
              fill="none"
              stroke="#8d6e63"
              stroke-width="3"
              stroke-linecap="round"/>

        <!-- Arms -->
        <path d="M -40 0 Q -70 20 -60 50"
              fill="none"
              stroke="#cfb795"
              stroke-width="25"
              stroke-linecap="round"/>
        <path d="M 40 0 Q 70 20 60 50"
              fill="none"
              stroke="#cfb795"
              stroke-width="25"
              stroke-linecap="round"/>

        <!-- Heart on chest -->
        <path d="M 0 20
                C -15 5, -30 15, -15 30
                L 0 40
                L 15 30
                C 30 15, 15 5, 0 20"
              fill="#ff80ab"/>
    </g>
</svg>