<?xml version="1.0" encoding="UTF-8"?>
<svg xmlns="http://www.w3.org/2000/svg" viewBox="0 0 400 300">
    <rect width="400" height="300" fill="#ffebee"/>
    <g transform="translate(200 150)">
        <g>
            <circle cx="-50" cy="-30" r="30" fill="#ef5350"/>
            <circle cx="50" cy="-30" r="30" fill="#e57373"/>
            <circle cx="0" cy="40" r="25" fill="#ff8a80"/>
            <path d="M -20 0
                    C -35 -15, -50 -5, -35 10
                    L -20 20
                    L -5 10
                    C 10 -5, -5 -15, -20 0"
                  fill="#ff80ab"/>
            <path d="M 20 0
                    C 35 -15, 50 -5, 35 10
                    L 20 20
                    L 5 10
                    C -10 -5, 5 -15, 20 0"
                  fill="#ff80ab"/>
        </g>
        <path d="M -60 -30 Q -50 -25 -40 -30"
              fill="none"
              stroke="#ffffff"
              stroke-width="3"
              stroke-linecap="round"/>
        <path d="M 40 -30 Q 50 -25 60 -30"
              fill="none"
              stroke="#ffffff"
              stroke-width="3"
              stroke-linecap="round"/>
        <path d="M -10 40 Q 0 45 10 40"
              fill="none"
              stroke="#ffffff"
              stroke-width="3"
              stroke-linecap="round"/>
    </g>
</svg>